HIERARCHY
ROOT Hips
{
	OFFSET 0.000000 97.167313 0.000000
	CHANNELS 6 Xposition Yposition Zposition Xrotation Yrotation Zrotation
	JOINT Spine
	{
		OFFSET 0.000000 13.784798 0.064400
		CHANNELS 3 Xrotation Yrotation Zrotation
		JOINT Spine1
		{
			OFFSET 0.000000 12.037903 0.404700
			CHANNELS 3 Xrotation Yrotation Zrotation
			JOINT Spine2
			{
				OFFSET 0.000000 17.795601 0.420200
				CHANNELS 3 Xrotation Yrotation Zrotation
				JOINT Neck
				{
					OFFSET 0.000000 39.131302 11.954600
					CHANNELS 3 Xrotation Yrotation Zrotation
					JOINT Head
					{
						OFFSET 0.000000 14.456192 15.627699
						CHANNELS 3 Xrotation Yrotation Zrotation
						JOINT HeadTop_End
						{
							OFFSET 0.000000 15.703506 7.603401
							CHANNELS 3 Xrotation Yrotation Zrotation
							End Site
							{
								OFFSET 0.000000 17.447403 0.000000
							}
						}
					}
				}
				JOINT LeftShoulder
				{
					OFFSET 17.399500 24.608795 1.168800
					CHANNELS 3 Xrotation Yrotation Zrotation
					JOINT LeftArm
					{
						OFFSET 18.980635 5.765305 1.818600
						CHANNELS 3 Xrotation Yrotation Zrotation
						JOINT LeftForeArm
						{
							OFFSET 49.290169 0.000000 0.000000
							CHANNELS 3 Xrotation Yrotation Zrotation
							JOINT LeftHand
							{
								OFFSET 31.562012 0.000000 0.000000
								CHANNELS 3 Xrotation Yrotation Zrotation
								JOINT LeftHandThumb1
								{
									OFFSET 6.133995 -4.388519 7.076070
									CHANNELS 3 Xrotation Yrotation Zrotation
									JOINT LeftHandThumb2
									{
										OFFSET 6.037666 -3.485840 3.485847
										CHANNELS 3 Xrotation Yrotation Zrotation
										JOINT LeftHandThumb3
										{
											OFFSET 6.496506 -3.750763 3.750761
											CHANNELS 3 Xrotation Yrotation Zrotation
											JOINT LeftHandThumb4
											{
												OFFSET 5.616882 -3.242905 3.242910
												CHANNELS 3 Xrotation Yrotation Zrotation
												End Site
												{
													OFFSET -1.254608 7.132141 0.375429
												}
											}
										}
									}
								}
								JOINT LeftHandPinky1
								{
									OFFSET 18.920792 -0.453171 -11.426712
									CHANNELS 3 Xrotation Yrotation Zrotation
									JOINT LeftHandPinky2
									{
										OFFSET 4.919586 0.000000 0.000000
										CHANNELS 3 Xrotation Yrotation Zrotation
										JOINT LeftHandPinky3
										{
											OFFSET 5.233047 0.000000 0.000000
											CHANNELS 3 Xrotation Yrotation Zrotation
											JOINT LeftHandPinky4
											{
												OFFSET 5.571716 0.000000 0.000000
												CHANNELS 3 Xrotation Yrotation Zrotation
												End Site
												{
													OFFSET -3.459808 4.342407 -0.466164
												}
											}
										}
									}
								}
								JOINT LeftHandRing1
								{
									OFFSET 22.726120 -0.094986 -6.500475
									CHANNELS 3 Xrotation Yrotation Zrotation
									JOINT LeftHandRing2
									{
										OFFSET 6.408615 0.000000 0.000000
										CHANNELS 3 Xrotation Yrotation Zrotation
										JOINT LeftHandRing3
										{
											OFFSET 6.150223 0.000000 0.000000
											CHANNELS 3 Xrotation Yrotation Zrotation
											JOINT LeftHandRing4
											{
												OFFSET 6.145386 0.000000 0.000000
												CHANNELS 3 Xrotation Yrotation Zrotation
												End Site
												{
													OFFSET -3.671402 4.923981 -0.202372
												}
											}
										}
									}
								}
								JOINT LeftHandMiddle1
								{
									OFFSET 23.373947 0.000000 0.000001
									CHANNELS 3 Xrotation Yrotation Zrotation
									JOINT LeftHandMiddle2
									{
										OFFSET 6.996567 0.000000 0.000000
										CHANNELS 3 Xrotation Yrotation Zrotation
										JOINT LeftHandMiddle3
										{
											OFFSET 7.015945 0.000000 0.000000
											CHANNELS 3 Xrotation Yrotation Zrotation
											JOINT LeftHandMiddle4
											{
												OFFSET 7.721573 0.000000 0.000000
												CHANNELS 3 Xrotation Yrotation Zrotation
												End Site
												{
													OFFSET -4.651108 6.158463 0.251582
												}
											}
										}
									}
								}
								JOINT LeftHandIndex1
								{
									OFFSET 21.310577 -0.490082 6.209344
									CHANNELS 3 Xrotation Yrotation Zrotation
									JOINT LeftHandIndex2
									{
										OFFSET 7.536453 0.000000 0.000000
										CHANNELS 3 Xrotation Yrotation Zrotation
										JOINT LeftHandIndex3
										{
											OFFSET 7.512344 0.000000 0.000000
											CHANNELS 3 Xrotation Yrotation Zrotation
											JOINT LeftHandIndex4
											{
												OFFSET 10.212402 0.000000 0.000001
												CHANNELS 3 Xrotation Yrotation Zrotation
												End Site
												{
													OFFSET -5.180801 8.690506 1.388433
												}
											}
										}
									}
								}
							}
						}
					}
				}
				JOINT RightShoulder
				{
					OFFSET -17.399500 24.608795 1.168800
					CHANNELS 3 Xrotation Yrotation Zrotation
					JOINT RightArm
					{
						OFFSET -18.980635 5.765305 1.818600
						CHANNELS 3 Xrotation Yrotation Zrotation
						JOINT RightForeArm
						{
							OFFSET -49.290169 0.000000 0.000000
							CHANNELS 3 Xrotation Yrotation Zrotation
							JOINT RightHand
							{
								OFFSET -31.562012 0.000000 0.000000
								CHANNELS 3 Xrotation Yrotation Zrotation
								JOINT RightHandThumb1
								{
									OFFSET -6.133995 -4.388519 7.076070
									CHANNELS 3 Xrotation Yrotation Zrotation
									JOINT RightHandThumb2
									{
										OFFSET -6.037666 -3.485840 3.485847
										CHANNELS 3 Xrotation Yrotation Zrotation
										JOINT RightHandThumb3
										{
											OFFSET -6.496506 -3.750763 3.750761
											CHANNELS 3 Xrotation Yrotation Zrotation
											JOINT RightHandThumb4
											{
												OFFSET -5.616882 -3.242905 3.242910
												CHANNELS 3 Xrotation Yrotation Zrotation
												End Site
												{
													OFFSET 1.254608 7.132141 0.375429
												}
											}
										}
									}
								}
								JOINT RightHandIndex1
								{
									OFFSET -21.310577 -0.490082 6.209344
									CHANNELS 3 Xrotation Yrotation Zrotation
									JOINT RightHandIndex2
									{
										OFFSET -7.536453 0.000000 0.000000
										CHANNELS 3 Xrotation Yrotation Zrotation
										JOINT RightHandIndex3
										{
											OFFSET -7.512344 0.000000 0.000000
											CHANNELS 3 Xrotation Yrotation Zrotation
											JOINT RightHandIndex4
											{
												OFFSET -10.212402 0.000000 0.000001
												CHANNELS 3 Xrotation Yrotation Zrotation
												End Site
												{
													OFFSET 5.180801 8.690506 1.388433
												}
											}
										}
									}
								}
								JOINT RightHandMiddle1
								{
									OFFSET -23.373947 0.000000 0.000001
									CHANNELS 3 Xrotation Yrotation Zrotation
									JOINT RightHandMiddle2
									{
										OFFSET -6.996567 0.000000 0.000000
										CHANNELS 3 Xrotation Yrotation Zrotation
										JOINT RightHandMiddle3
										{
											OFFSET -7.015945 0.000000 0.000000
											CHANNELS 3 Xrotation Yrotation Zrotation
											JOINT RightHandMiddle4
											{
												OFFSET -7.721573 0.000000 0.000000
												CHANNELS 3 Xrotation Yrotation Zrotation
												End Site
												{
													OFFSET 4.651108 6.158463 0.251582
												}
											}
										}
									}
								}
								JOINT RightHandRing1
								{
									OFFSET -22.726120 -0.094986 -6.500475
									CHANNELS 3 Xrotation Yrotation Zrotation
									JOINT RightHandRing2
									{
										OFFSET -6.408615 0.000000 0.000000
										CHANNELS 3 Xrotation Yrotation Zrotation
										JOINT RightHandRing3
										{
											OFFSET -6.150223 0.000000 0.000000
											CHANNELS 3 Xrotation Yrotation Zrotation
											JOINT RightHandRing4
											{
												OFFSET -6.145386 0.000000 0.000000
												CHANNELS 3 Xrotation Yrotation Zrotation
												End Site
												{
													OFFSET 3.671402 4.923981 -0.202372
												}
											}
										}
									}
								}
								JOINT RightHandPinky1
								{
									OFFSET -18.920792 -0.453171 -11.426712
									CHANNELS 3 Xrotation Yrotation Zrotation
									JOINT RightHandPinky2
									{
										OFFSET -4.919586 0.000000 0.000000
										CHANNELS 3 Xrotation Yrotation Zrotation
										JOINT RightHandPinky3
										{
											OFFSET -5.233047 0.000000 0.000000
											CHANNELS 3 Xrotation Yrotation Zrotation
											JOINT RightHandPinky4
											{
												OFFSET -5.571716 0.000000 0.000000
												CHANNELS 3 Xrotation Yrotation Zrotation
												End Site
												{
													OFFSET 3.459808 4.342407 -0.466164
												}
											}
										}
									}
								}
							}
						}
					}
				}
			}
		}
	}
	JOINT LeftUpLeg
	{
		OFFSET 19.899099 -7.885101 -3.429500
		CHANNELS 3 Xrotation Yrotation Zrotation
		JOINT LeftLeg
		{
			OFFSET 1.745560 -36.997807 10.304700
			CHANNELS 3 Xrotation Yrotation Zrotation
			JOINT LeftFoot
			{
				OFFSET -1.745558 -29.803308 -13.615400
				CHANNELS 3 Xrotation Yrotation Zrotation
				JOINT LeftToeBase
				{
					OFFSET 1.181900 -18.539904 15.226099
					CHANNELS 3 Xrotation Yrotation Zrotation
					JOINT LeftToe_End
					{
						OFFSET -0.863701 1.402801 16.534700
						CHANNELS 3 Xrotation Yrotation Zrotation
						End Site
						{
							OFFSET 0.000000 16.616566 0.000000
						}
					}
				}
			}
		}
	}
	JOINT RightUpLeg
	{
		OFFSET -19.899099 -7.885101 -3.429500
		CHANNELS 3 Xrotation Yrotation Zrotation
		JOINT RightLeg
		{
			OFFSET -1.745560 -36.997807 10.304700
			CHANNELS 3 Xrotation Yrotation Zrotation
			JOINT RightFoot
			{
				OFFSET 1.745558 -29.803308 -13.615400
				CHANNELS 3 Xrotation Yrotation Zrotation
				JOINT RightToeBase
				{
					OFFSET -1.181900 -18.539904 15.226099
					CHANNELS 3 Xrotation Yrotation Zrotation
					JOINT RightToe_End
					{
						OFFSET 0.863701 1.402801 16.534700
						CHANNELS 3 Xrotation Yrotation Zrotation
						End Site
						{
							OFFSET 0.000000 16.616566 0.000000
						}
					}
				}
			}
		}
	}
}
MOTION
Frames: 4
Frame Time: 0.033333
0.579795 50.562744 20.949842 0.146164 0.050598 0.848334 10.430256 0.146005 -1.478032 -0.199274 0.211840 -0.355457 -0.199598 0.248476 -0.300879 -1.001770 -1.284342 0.469464 -8.883499 -4.327063 -5.321559 -0.000000 0.000000 0.000000 0.823518 -15.262027 -7.868750 4.746741 -21.216422 -54.862204 0.000005 -62.197342 -0.000026 31.062874 4.315212 41.770309 6.607759 1.799416 20.806051 2.715136 20.171521 -24.391803 -5.545199 29.842739 5.067970 0.000002 0.000001 -0.000002 2.032169 10.872074 -13.900248 0.168162 1.394915 -13.746231 0.106923 1.115340 -10.951746 -0.000001 0.000000 -0.000002 1.795771 9.809721 -14.166283 0.205586 1.539869 -15.208186 0.265110 1.744035 -17.285143 -0.000000 0.000000 0.000003 1.298288 7.334620 -16.496071 0.329533 1.938874 -19.289767 0.232862 1.636899 -16.192316 0.000001 -0.000001 0.000008 -0.240031 2.790312 -26.900681 0.396402 2.120147 -21.177592 0.082910 0.983180 -9.640467 -0.000000 0.000002 -0.000003 3.171110 -4.378764 8.782840 -3.942845 37.249574 63.727762 0.000010 55.144488 0.000008 43.533163 4.735949 -36.279933 -9.383367 -1.612594 -17.607712 3.556909 -24.337048 34.656032 -6.607261 -37.497619 -11.174382 -0.000000 0.000000 -0.000001 2.960813 1.013624 13.527582 0.472464 -2.045708 26.006738 0.059758 -0.744379 9.177806 -0.000001 0.000002 0.000001 0.105426 -3.664674 2.520811 0.585121 -2.261917 29.003695 0.020463 -0.436560 5.367133 0.000001 -0.000001 -0.000001 0.456514 -7.645453 4.305844 0.107414 -0.995501 12.316317 0.072398 -0.818815 10.104488 -0.000003 0.000001 -0.000002 -11.162324 -10.227900 7.169815 0.029111 -0.520529 6.403073 0.028655 -0.516299 6.351264 0.000001 -0.000004 0.000005 -86.376567 -12.021751 20.548643 80.423080 -2.939452 -4.287443 8.678461 -5.939229 -9.536189 -0.103128 0.000009 -0.000000 -0.000000 0.000001 -0.000000 -88.134719 13.646002 -16.492062 81.376827 3.364296 2.592606 9.659032 -0.967867 10.698690 -0.191613 0.000005 -0.000005 -0.000000 -0.000001 0.000000 
0.763279 50.505836 20.805391 -1.761434 0.110038 1.202412 10.057987 0.120071 -1.479637 1.716581 0.200142 -0.504531 1.716106 0.215718 -0.458988 -1.430577 -1.109954 0.485419 -9.104940 -3.580242 -4.845209 0.000000 0.000000 -0.000000 0.849540 -16.460297 -7.292748 2.115137 -21.132583 -54.655925 0.000006 -60.644041 -0.000000 30.552956 3.655670 41.898395 6.607772 1.799419 20.806052 2.715128 20.171487 -24.391804 -5.545206 29.842749 5.067977 0.000003 0.000001 0.000000 2.032181 10.872064 -13.900241 0.168145 1.394926 -13.746229 0.106928 1.115323 -10.951767 0.000001 0.000002 -0.000002 1.795777 9.809725 -14.166286 0.205588 1.539884 -15.208176 0.265118 1.744020 -17.285132 -0.000001 0.000003 -0.000003 1.298284 7.334607 -16.496080 0.329542 1.938906 -19.289749 0.232873 1.636883 -16.192314 0.000001 0.000000 0.000004 -0.240023 2.790310 -26.900688 0.396396 2.120185 -21.177567 0.082921 0.983170 -9.640473 0.000000 0.000001 0.000001 3.147017 -3.119906 10.428539 -5.175095 37.517973 61.302034 0.000019 54.470400 -0.000022 42.187787 4.958003 -36.733386 -9.376488 -1.640383 -17.616236 3.529766 -24.360927 34.647545 -6.659787 -37.484082 -11.251405 -0.000001 0.000000 -0.000001 2.957385 1.027881 13.528837 0.472462 -2.045711 26.006734 0.059753 -0.744394 9.177801 -0.000002 0.000002 0.000001 0.106926 -3.698903 2.518119 0.585126 -2.261919 29.003688 0.020455 -0.436575 5.367123 0.000002 0.000000 -0.000008 0.461640 -7.712942 4.300999 0.107413 -0.995508 12.316325 0.072396 -0.818815 10.104492 -0.000001 0.000001 -0.000003 -11.162336 -10.227912 7.169819 0.029123 -0.520526 6.403076 0.028641 -0.516321 6.351258 0.000004 -0.000002 0.000005 -85.113269 -11.199299 19.197377 80.916855 -4.186012 -3.823944 8.706653 -5.415741 -9.419883 -0.533216 0.000003 0.000004 -0.000000 0.000001 0.000000 -87.117314 13.367844 -16.341701 82.280939 3.866724 2.642909 9.813342 -0.871656 10.170289 -0.425395 0.000689 -0.129612 0.000000 0.000000 -0.000000 
0.929347 50.463638 20.579134 -3.963440 0.197977 1.498308 9.797691 0.087481 -1.483733 4.103035 0.217436 -0.619900 4.102717 0.213594 -0.582847 -2.020638 -0.942719 0.498974 -9.736169 -2.908824 -4.192585 0.000000 -0.000000 0.000000 0.913341 -17.234027 -6.355628 -1.273641 -21.882362 -54.519079 0.000033 -58.796830 0.000023 29.933137 2.936516 42.189163 6.607764 1.799408 20.806056 2.715146 20.171502 -24.391794 -5.545203 29.842729 5.067968 0.000003 -0.000003 -0.000002 2.032179 10.872063 -13.900240 0.168148 1.394908 -13.746235 0.106938 1.115326 -10.951744 0.000001 0.000001 0.000001 1.795775 9.809726 -14.166288 0.205594 1.539859 -15.208190 0.265111 1.744043 -17.285127 0.000000 0.000000 -0.000000 1.298288 7.334606 -16.496071 0.329529 1.938872 -19.289757 0.232877 1.636896 -16.192323 0.000001 -0.000000 0.000004 -0.240027 2.790317 -26.900685 0.396401 2.120164 -21.177574 0.082908 0.983162 -9.640470 -0.000000 0.000000 -0.000002 3.017426 -1.951722 12.116801 -6.541771 38.158781 58.280556 -0.000010 53.942881 0.000044 40.344367 5.149064 -37.377483 -9.369604 -1.667518 -17.628027 3.525138 -24.365016 34.646077 -6.710368 -37.470937 -11.325614 -0.000002 -0.000001 -0.000001 2.953956 1.042120 13.530090 0.472471 -2.045699 26.006734 0.059740 -0.744414 9.177795 -0.000002 0.000001 -0.000001 0.108443 -3.733118 2.515429 0.585111 -2.261901 29.003702 0.020472 -0.436574 5.367121 0.000001 0.000000 -0.000008 0.466792 -7.780796 4.296161 0.107417 -0.995497 12.316322 0.072386 -0.818803 10.104491 -0.000001 0.000001 -0.000003 -11.162331 -10.227907 7.169810 0.029117 -0.520508 6.403086 0.028656 -0.516315 6.351260 0.000001 -0.000003 0.000000 -83.653746 -10.443770 17.810050 81.297583 -5.668245 -3.315125 9.072594 -4.922127 -9.679532 -1.063987 0.000010 0.000001 0.000000 -0.000000 0.000000 -85.776152 12.975004 -16.443259 83.379787 4.726441 2.813854 9.368276 -0.883063 10.015689 -0.227396 0.001352 -0.379327 -0.000000 0.000001 0.000000 
1.067018 50.432503 20.286898 -6.040131 0.337865 1.826468 9.656026 0.073234 -1.457680 6.924469 0.268148 -0.700290 6.924449 0.247348 -0.671206 -2.579605 -0.801404 0.482114 -11.283972 -2.429401 -3.381779 -0.000000 0.000000 0.000000 1.004444 -17.866301 -5.282085 -4.871792 -22.700786 -54.080379 -0.000005 -57.831799 -0.000017 29.329174 2.405117 42.620346 6.607764 1.799403 20.806054 2.715125 20.171494 -24.391811 -5.545203 29.842729 5.067965 0.000002 -0.000003 -0.000004 2.032178 10.872059 -13.900255 0.168151 1.394909 -13.746229 0.106924 1.115342 -10.951739 -0.000002 -0.000000 -0.000004 1.795782 9.809717 -14.166282 0.205598 1.539880 -15.208171 0.265103 1.744032 -17.285151 0.000001 0.000000 0.000002 1.298294 7.334600 -16.496066 0.329537 1.938879 -19.289771 0.232867 1.636878 -16.192321 0.000003 -0.000001 0.000004 -0.240025 2.790299 -26.900690 0.396390 2.120146 -21.177586 0.082919 0.983194 -9.640471 -0.000001 -0.000000 0.000001 2.754034 -1.073376 13.522192 -7.816207 39.149616 54.843684 -0.000019 54.220439 0.000037 38.261726 4.964580 -38.322453 -9.362681 -1.694691 -17.639807 3.525130 -24.365042 34.646083 -6.761647 -37.448308 -11.396454 0.000001 -0.000001 0.000002 2.950558 1.056401 13.530741 0.472462 -2.045691 26.006731 0.059750 -0.744398 9.177802 -0.000000 -0.000001 -0.000001 0.109951 -3.767338 2.512742 0.585120 -2.261920 29.003691 0.020453 -0.436593 5.367126 -0.000001 0.000002 -0.000004 0.471990 -7.849451 4.291263 0.107409 -0.995497 12.316312 0.072403 -0.818818 10.104501 0.000001 -0.000001 -0.000003 -11.162315 -10.227887 7.169819 0.029113 -0.520511 6.403079 0.028653 -0.516326 6.351262 -0.000001 -0.000004 0.000002 -82.356830 -9.563711 16.328699 81.651674 -7.210112 -2.775877 9.354556 -4.494636 -9.955990 -1.671888 0.000001 0.000003 -0.000000 -0.000000 0.000000 -84.446628 12.650277 -16.851625 84.405251 5.619113 3.053774 8.687635 -0.920968 10.379949 0.027817 -0.000006 -0.000004 0.000000 -0.000000 0.000000 
